<svg width="830" height="255" viewBox="0 0 830 255" fill="none" xmlns="http://www.w3.org/2000/svg">
<g clip-path="url(#clip0_143_229)">
<path d="M74.9 213.9C74.9 222.6 77.3 225 86 225H105.2C113.9 225 116.3 222.6 116.3 213.9V174.9C116.3 159 115.4 154.2 109.1 142.5L100.7 127.2C99.8 125.7 99.5 124.8 99.5 123.9C99.5 123 99.8 122.1 101.3 121.2C113.6 111.3 116.9 97.2 116.9 75.6V54C116.9 15.6 96.2 -1.78814e-05 50.6 -1.78814e-05H11C2.3 -1.78814e-05 -0.0999996 2.39999 -0.0999996 11.1V213.9C-0.0999996 222.6 2.3 225 11 225H30.2C38.9 225 41.3 222.6 41.3 213.9V143.1C41.3 138.9 42.5 137.7 46.7 137.7H52.1C57.5 137.7 59.3 138.6 62.6 144L69.8 156.9C74.3 165 74.9 168.3 74.9 178.8V213.9ZM41.3 45.9C41.3 41.7 42.5 40.5 46.7 40.5H53C67.7 40.5 74.3 46.2 74.3 60.3V75.9C74.3 90.3 67.1 96.6 53 96.6H46.7C42.5 96.6 41.3 95.4 41.3 91.2V45.9ZM211.667 11.1V169.2C211.667 181.2 206.267 186 195.167 186C183.767 186 178.667 181.2 178.667 169.2V11.1C178.667 2.39999 176.267 -1.78814e-05 167.567 -1.78814e-05H148.367C139.667 -1.78814e-05 137.267 2.39999 137.267 11.1V162C137.267 210.3 151.667 228 195.167 228C238.667 228 253.067 210.3 253.067 162V11.1C253.067 2.39999 250.667 -1.78814e-05 241.967 -1.78814e-05H222.767C214.067 -1.78814e-05 211.667 2.39999 211.667 11.1ZM323.841 80.1C315.441 72.3 313.641 68.1 313.641 59.4V54.3C313.641 43.5 318.441 39 328.941 39C339.441 39 344.241 43.8 344.241 55.8V69C344.241 77.7 346.641 80.1 355.341 80.1H375.741C384.441 80.1 386.841 77.7 386.841 69V63C386.841 14.7 372.441 -3.00002 328.941 -3.00002C285.441 -3.00002 271.041 18 271.041 55.8V62.4C271.041 82.5 275.241 92.7 295.341 110.4L331.341 142.5C342.441 152.4 344.241 156.6 344.241 165V170.7C344.241 181.5 339.441 186 328.941 186C318.441 186 313.641 181.2 313.641 169.2V156C313.641 147.3 311.241 144.9 302.541 144.9H282.141C273.441 144.9 271.041 147.3 271.041 156V162C271.041 210.3 285.441 228 328.941 228C372.441 228 386.841 207 386.841 169.2V163.8C386.841 143.7 382.341 132.9 362.241 114.9L323.841 80.1ZM493.283 42C501.983 42 504.383 39.6 504.383 30.9V11.1C504.383 2.39999 501.983 -1.78814e-05 493.283 -1.78814e-05H403.883C395.183 -1.78814e-05 392.783 2.39999 392.783 11.1V30.9C392.783 39.6 395.183 42 403.883 42H422.483C426.683 42 427.883 43.2 427.883 47.4V213.9C427.883 222.6 430.283 225 438.983 225H458.183C466.883 225 469.283 222.6 469.283 213.9V47.4C469.283 43.2 470.483 42 474.683 42H493.283Z" fill="white"/>
<path d="M566.3 11.1C566.3 2.39999 563.9 -1.78814e-05 555.2 -1.78814e-05H536C527.3 -1.78814e-05 524.9 2.39999 524.9 11.1V213.9C524.9 222.6 527.3 225 536 225H555.2C563.9 225 566.3 222.6 566.3 213.9V11.1Z" fill="#E92F50"/>
<path d="M639.399 122.925C639.403 122.925 639.406 122.927 639.409 122.93L675.569 159.035C678.699 162.16 678.699 167.232 675.569 170.357L670.182 175.737C667.052 178.863 667.053 183.935 670.184 187.06L675.587 192.452C678.719 195.578 678.719 200.652 675.587 203.777L670.175 209.179C667.052 212.295 661.996 212.295 658.873 209.179L640.877 191.221C637.754 188.104 632.698 188.104 629.575 191.221L607.389 213.361C604.266 216.477 599.21 216.477 596.087 213.361L590.673 207.958C587.542 204.833 587.541 199.759 590.672 196.634L612.814 174.53C615.946 171.404 615.945 166.329 612.812 163.204L594.867 145.303C591.734 142.178 591.734 137.103 594.866 133.977L600.28 128.575C603.402 125.459 608.456 125.458 611.58 128.573L617.014 133.992C620.138 137.107 625.194 137.105 628.316 133.988L639.389 122.93C639.391 122.927 639.395 122.925 639.399 122.925ZM591.47 8.01356C591.466 3.58999 595.053 0.00303096 599.477 0.0067657L630.134 0.0326486C632.25 0.0344357 634.28 0.874974 635.778 2.37018L767.673 134.003C770.795 137.119 775.849 137.12 778.973 134.005L784.42 128.573C787.544 125.458 792.598 125.459 795.72 128.575L801.136 133.979C804.268 137.104 804.268 142.178 801.137 145.303L783.195 163.216C780.064 166.341 780.064 171.414 783.195 174.539L805.328 196.634C808.459 199.759 808.458 204.833 805.327 207.958L799.913 213.361C796.79 216.477 791.734 216.477 788.611 213.361L766.425 191.221C763.302 188.104 758.246 188.104 755.123 191.221L737.127 209.179C734.004 212.295 728.948 212.295 725.825 209.179L720.411 203.775C717.279 200.651 717.278 195.578 720.409 192.452L725.806 187.062C728.936 183.936 728.935 178.863 725.804 175.739L593.845 44.0528C592.343 42.5537 591.498 40.5191 591.496 38.3969L591.47 8.01356ZM760.252 2.33939C761.753 0.841456 763.788 0.00100671 765.909 0.00279882L796.548 0.0286886C800.962 0.0324183 804.539 3.61027 804.541 8.02413L804.559 38.3306C804.56 40.4571 803.714 42.4966 802.209 43.9986L762.234 83.8813C759.111 86.9967 754.056 86.9968 750.933 83.8814L720.403 53.4231C717.27 50.2974 717.27 45.2219 720.403 42.0962L760.252 2.33939Z" fill="#E92F50"/>
</g>
<defs>
<clipPath id="clip0_143_229">
<rect width="830" height="255" fill="white"/>
</clipPath>
</defs>
</svg>
