<svg width="18" height="18" viewBox="0 0 18 18" fill="none" xmlns="http://www.w3.org/2000/svg">
<path d="M9 0C4.02933 0 0 4.02933 0 9C0 13.9707 4.02933 18 9 18C13.9707 18 18 13.9707 18 9C18 4.02933 13.9707 0 9 0ZM14.8853 5.21867L13.152 6.21867C12.7887 5.678 12.3227 5.212 11.782 4.848L12.782 3.11533C13.6253 3.658 14.3427 4.37533 14.8853 5.21867ZM9.33333 2.01667C10.3653 2.06533 11.3387 2.33333 12.2067 2.782L11.204 4.51867C10.632 4.236 10.0013 4.06133 9.33333 4.01667V2.01667ZM8.66667 2.01667V4.01667C7.99933 4.06067 7.36867 4.236 6.79667 4.518L5.794 2.78133C6.662 2.33333 7.63467 2.066 8.66667 2.01667ZM5.21733 3.116L6.21733 4.84867C5.67733 5.212 5.21133 5.678 4.848 6.21867L3.11467 5.218C3.65733 4.37533 4.37467 3.658 5.21733 3.116ZM2.78133 5.79467L4.518 6.798C4.236 7.36933 4.06133 8 4.01667 8.66733H2.01667C2.06533 7.63533 2.33333 6.66267 2.78133 5.79467ZM2.01667 9.334H4.01667C4.06067 10.0013 4.23667 10.632 4.51867 11.2033L2.782 12.206C2.33333 11.3387 2.066 10.366 2.01667 9.334ZM3.116 12.7827L4.84867 11.7827C5.21267 12.3233 5.67867 12.7893 6.21933 13.1527L5.21867 14.8853C4.37533 14.3427 3.658 13.6253 3.116 12.7827ZM8.66667 15.9833C7.63533 15.9347 6.66267 15.6667 5.79467 15.2193L6.798 13.4827C7.368 13.7647 7.99933 13.9393 8.66667 13.984V15.9833ZM8.66667 12V10.6327C8.01333 10.5007 7.49933 9.986 7.36733 9.33333H6V8.66667H7.36733C7.49933 8.014 8.014 7.49933 8.66667 7.36733V6H9.33333V7.36733C9.986 7.49933 10.5007 8.014 10.6327 8.66667H12V9.33333H10.6327C10.5007 9.986 9.986 10.5007 9.33333 10.6327V12H8.66667ZM9.33333 15.9833V13.9833C10.0007 13.9393 10.6313 13.764 11.2027 13.482L12.2053 15.2187C11.338 15.6667 10.3653 15.934 9.33333 15.9833ZM12.7827 14.8847L11.782 13.1513C12.3227 12.788 12.788 12.3227 13.152 11.782L14.8847 12.782C14.342 13.6253 13.6247 14.3427 12.7827 14.8847ZM15.2187 12.206L13.482 11.2033C13.764 10.632 13.9387 10.0013 13.9833 9.334H15.9833C15.934 10.366 15.6667 11.3387 15.2187 12.206ZM13.9833 8.66733C13.9393 8 13.764 7.36933 13.482 6.798L15.2187 5.79467C15.6667 6.66267 15.9347 7.63533 15.9827 8.66733H13.9833V8.66733Z" fill="#E92F50"/>
</svg>
